{
    "asset" : {
        "generator" : "Khronos glTF Blender I/O v3.2.43",
        "version" : "2.0"
    },
    "scene" : 0,
    "scenes" : [
        {
            "name" : "Scene",
            "nodes" : [
                0
            ]
        }
    ],
    "nodes" : [
        {
            "mesh" : 0,
            "name" : "Umbreon",
            "rotation" : [
                0.7071068286895752,
                0,
                0,
                0.7071067094802856
            ],
            "scale" : [
                0.5,
                0.5,
                0.5
            ]
        }
    ],
    "materials" : [
        {
            "doubleSided" : true,
            "name" : "Umbreon",
            "pbrMetallicRoughness" : {
                "baseColorFactor" : [
                    0.800000011920929,
                    0.800000011920929,
                    0.800000011920929,
                    1
                ],
                "metallicFactor" : 0,
                "roughnessFactor" : 0.5
            }
        },
        {
            "doubleSided" : true,
            "name" : "UmbreonEye",
            "pbrMetallicRoughness" : {
                "baseColorFactor" : [
                    0.800000011920929,
                    0.800000011920929,
                    0.800000011920929,
                    1
                ],
                "metallicFactor" : 0,
                "roughnessFactor" : 0.5
            }
        }
    ],
    "meshes" : [
        {
            "name" : "Umbreon",
            "primitives" : [
                {
                    "attributes" : {
                        "POSITION" : 0,
                        "NORMAL" : 1,
                        "TEXCOORD_0" : 2
                    },
                    "indices" : 3,
                    "material" : 0
                },
                {
                    "attributes" : {
                        "POSITION" : 4,
                        "NORMAL" : 5,
                        "TEXCOORD_0" : 6
                    },
                    "indices" : 7,
                    "material" : 1
                }
            ]
        }
    ],
    "accessors" : [
        {
            "bufferView" : 0,
            "componentType" : 5126,
            "count" : 1133,
            "max" : [
                0.9992979764938354,
                1.5236870050430298,
                1.3236809968948364
            ],
            "min" : [
                -0.9992979764938354,
                -2.681520938873291,
                -2.150681972503662
            ],
            "type" : "VEC3"
        },
        {
            "bufferView" : 1,
            "componentType" : 5126,
            "count" : 1133,
            "type" : "VEC3"
        },
        {
            "bufferView" : 2,
            "componentType" : 5126,
            "count" : 1133,
            "type" : "VEC2"
        },
        {
            "bufferView" : 3,
            "componentType" : 5123,
            "count" : 5370,
            "type" : "SCALAR"
        },
        {
            "bufferView" : 4,
            "componentType" : 5126,
            "count" : 42,
            "max" : [
                0.3959290087223053,
                1.4443490505218506,
                -0.8331279754638672
            ],
            "min" : [
                -0.3959290087223053,
                1.273859977722168,
                -1.0324909687042236
            ],
            "type" : "VEC3"
        },
        {
            "bufferView" : 5,
            "componentType" : 5126,
            "count" : 42,
            "type" : "VEC3"
        },
        {
            "bufferView" : 6,
            "componentType" : 5126,
            "count" : 42,
            "type" : "VEC2"
        },
        {
            "bufferView" : 7,
            "componentType" : 5123,
            "count" : 180,
            "type" : "SCALAR"
        }
    ],
    "bufferViews" : [
        {
            "buffer" : 0,
            "byteLength" : 13596,
            "byteOffset" : 0
        },
        {
            "buffer" : 0,
            "byteLength" : 13596,
            "byteOffset" : 13596
        },
        {
            "buffer" : 0,
            "byteLength" : 9064,
            "byteOffset" : 27192
        },
        {
            "buffer" : 0,
            "byteLength" : 10740,
            "byteOffset" : 36256
        },
        {
            "buffer" : 0,
            "byteLength" : 504,
            "byteOffset" : 46996
        },
        {
            "buffer" : 0,
            "byteLength" : 504,
            "byteOffset" : 47500
        },
        {
            "buffer" : 0,
            "byteLength" : 336,
            "byteOffset" : 48004
        },
        {
            "buffer" : 0,
            "byteLength" : 360,
            "byteOffset" : 48340
        }
    ],
    "buffers" : [
        {
            "byteLength" : 48700,
            "uri" : "data:application/octet-stream;base64,"
        }
    ]
}
