{
    "asset" : {
        "generator" : "Khronos glTF Blender I/O v3.2.43",
        "version" : "2.0"
    },
    "scene" : 0,
    "scenes" : [
        {
            "name" : "Scene",
            "nodes" : [
                0
            ]
        }
    ],
    "nodes" : [
        {
            "mesh" : 0,
            "name" : "Pikachu_Sphere",
            "rotation" : [
                0.7071068286895752,
                0,
                0,
                0.7071067094802856
            ],
            "scale" : [
                2,
                2,
                2
            ]
        }
    ],
    "materials" : [
        {
            "doubleSided" : true,
            "name" : "Skin",
            "pbrMetallicRoughness" : {
                "baseColorFactor" : [
                    0.800000011920929,
                    0.800000011920929,
                    0.800000011920929,
                    1
                ],
                "metallicFactor" : 0,
                "roughnessFactor" : 0.5
            }
        },
        {
            "doubleSided" : true,
            "name" : "Eye,_Ear",
            "pbrMetallicRoughness" : {
                "baseColorFactor" : [
                    0.800000011920929,
                    0.800000011920929,
                    0.800000011920929,
                    1
                ],
                "metallicFactor" : 0,
                "roughnessFactor" : 0.5
            }
        },
        {
            "doubleSided" : true,
            "name" : "Eye_02",
            "pbrMetallicRoughness" : {
                "baseColorFactor" : [
                    0.800000011920929,
                    0.800000011920929,
                    0.800000011920929,
                    1
                ],
                "metallicFactor" : 0,
                "roughnessFactor" : 0.5
            }
        },
        {
            "doubleSided" : true,
            "name" : "Cheek",
            "pbrMetallicRoughness" : {
                "baseColorFactor" : [
                    0.800000011920929,
                    0.800000011920929,
                    0.800000011920929,
                    1
                ],
                "metallicFactor" : 0,
                "roughnessFactor" : 0.5
            }
        }
    ],
    "meshes" : [
        {
            "name" : "Pikachu_Sphere",
            "primitives" : [
                {
                    "attributes" : {
                        "POSITION" : 0,
                        "NORMAL" : 1,
                        "TEXCOORD_0" : 2
                    },
                    "indices" : 3,
                    "material" : 0
                },
                {
                    "attributes" : {
                        "POSITION" : 4,
                        "NORMAL" : 5,
                        "TEXCOORD_0" : 6
                    },
                    "indices" : 7,
                    "material" : 1
                },
                {
                    "attributes" : {
                        "POSITION" : 8,
                        "NORMAL" : 9,
                        "TEXCOORD_0" : 10
                    },
                    "indices" : 11,
                    "material" : 2
                },
                {
                    "attributes" : {
                        "POSITION" : 12,
                        "NORMAL" : 13,
                        "TEXCOORD_0" : 14
                    },
                    "indices" : 15,
                    "material" : 3
                }
            ]
        }
    ],
    "accessors" : [
        {
            "bufferView" : 0,
            "componentType" : 5126,
            "count" : 1738,
            "max" : [
                1.5815629959106445,
                0.1847209930419922,
                -0.14379900693893433
            ],
            "min" : [
                -1.396515965461731,
                -3.2840819358825684,
                -5.101590156555176
            ],
            "type" : "VEC3"
        },
        {
            "bufferView" : 1,
            "componentType" : 5126,
            "count" : 1738,
            "type" : "VEC3"
        },
        {
            "bufferView" : 2,
            "componentType" : 5126,
            "count" : 1738,
            "type" : "VEC2"
        },
        {
            "bufferView" : 3,
            "componentType" : 5123,
            "count" : 9456,
            "type" : "SCALAR"
        },
        {
            "bufferView" : 4,
            "componentType" : 5126,
            "count" : 171,
            "max" : [
                1.722720980644226,
                -0.13442300260066986,
                -2.8013811111450195
            ],
            "min" : [
                -1.6501970291137695,
                -2.3724710941314697,
                -5.561553955078125
            ],
            "type" : "VEC3"
        },
        {
            "bufferView" : 5,
            "componentType" : 5126,
            "count" : 171,
            "type" : "VEC3"
        },
        {
            "bufferView" : 6,
            "componentType" : 5126,
            "count" : 171,
            "type" : "VEC2"
        },
        {
            "bufferView" : 7,
            "componentType" : 5123,
            "count" : 672,
            "type" : "SCALAR"
        },
        {
            "bufferView" : 8,
            "componentType" : 5126,
            "count" : 24,
            "max" : [
                0.7737129926681519,
                -0.3117760121822357,
                -3.6692419052124023
            ],
            "min" : [
                -0.46155300736427307,
                -0.4451049864292145,
                -3.8399510383605957
            ],
            "type" : "VEC3"
        },
        {
            "bufferView" : 9,
            "componentType" : 5126,
            "count" : 24,
            "type" : "VEC3"
        },
        {
            "bufferView" : 10,
            "componentType" : 5126,
            "count" : 24,
            "type" : "VEC2"
        },
        {
            "bufferView" : 11,
            "componentType" : 5123,
            "count" : 63,
            "type" : "SCALAR"
        },
        {
            "bufferView" : 12,
            "componentType" : 5126,
            "count" : 60,
            "max" : [
                1.2506059408187866,
                -0.38918501138687134,
                -2.8854129314422607
            ],
            "min" : [
                -0.9053379893302917,
                -0.9335960149765015,
                -3.512923002243042
            ],
            "type" : "VEC3"
        },
        {
            "bufferView" : 13,
            "componentType" : 5126,
            "count" : 60,
            "type" : "VEC3"
        },
        {
            "bufferView" : 14,
            "componentType" : 5126,
            "count" : 60,
            "type" : "VEC2"
        },
        {
            "bufferView" : 15,
            "componentType" : 5123,
            "count" : 195,
            "type" : "SCALAR"
        }
    ],
    "bufferViews" : [
        {
            "buffer" : 0,
            "byteLength" : 20856,
            "byteOffset" : 0
        },
        {
            "buffer" : 0,
            "byteLength" : 20856,
            "byteOffset" : 20856
        },
        {
            "buffer" : 0,
            "byteLength" : 13904,
            "byteOffset" : 41712
        },
        {
            "buffer" : 0,
            "byteLength" : 18912,
            "byteOffset" : 55616
        },
        {
            "buffer" : 0,
            "byteLength" : 2052,
            "byteOffset" : 74528
        },
        {
            "buffer" : 0,
            "byteLength" : 2052,
            "byteOffset" : 76580
        },
        {
            "buffer" : 0,
            "byteLength" : 1368,
            "byteOffset" : 78632
        },
        {
            "buffer" : 0,
            "byteLength" : 1344,
            "byteOffset" : 80000
        },
        {
            "buffer" : 0,
            "byteLength" : 288,
            "byteOffset" : 81344
        },
        {
            "buffer" : 0,
            "byteLength" : 288,
            "byteOffset" : 81632
        },
        {
            "buffer" : 0,
            "byteLength" : 192,
            "byteOffset" : 81920
        },
        {
            "buffer" : 0,
            "byteLength" : 126,
            "byteOffset" : 82112
        },
        {
            "buffer" : 0,
            "byteLength" : 720,
            "byteOffset" : 82240
        },
        {
            "buffer" : 0,
            "byteLength" : 720,
            "byteOffset" : 82960
        },
        {
            "buffer" : 0,
            "byteLength" : 480,
            "byteOffset" : 83680
        },
        {
            "buffer" : 0,
            "byteLength" : 390,
            "byteOffset" : 84160
        }
    ],
    "buffers" : [
        {
            "byteLength" : 84552,
            "uri" : "data:application/octet-stream;base64,"
        }
    ]
}
